# xmcd
#
# Track frame offsets: 
#        150
#        11848
#        23345
#        37716
#        50927
#        63044
#        74964
#        86228
#        96692
#        108655
#        120499
#        132441
#        143708
#        153051
#        164857
#        179601
#        195812
#
# Disc length: 2819 seconds
#
# Revision: 3
# Processed by: cddbd v1.5.2PL0 Copyright (c) Steve Scherf et al.
# Submitted via: ExactAudioCopy v0.99pb5
#
DISCID=f20b0111
DTITLE=Various Artist - Pure... Country - CD 1
DYEAR=2010
DGENRE=Country
TTITLE0=Johnny Cash - I walk the line
TTITLE1=Willie Nelson - On the road again
TTITLE2=John Denver - Take me home, country roads
TTITLE3=Lynn Anderson - Rose garden
TTITLE4=Dolly Parton - Jolene
TTITLE5=Tammy Wynette - Stand by your man
TTITLE6=Roy Orbison - Blue bayou
TTITLE7=Jim Reeves - He'll have to go
TTITLE8=Eddy Arnold - Make the world go away
TTITLE9=Skeeter Davis - The end of the world
TTITLE10=Bobby Bare - The streets of Baltimore
TTITLE11=Don Gibson - Oh lonesome me
TTITLE12=Barbara Mandrell - Tonight my baby's coming home
TTITLE13=Johnny Paycheck - Take this job and shove it
TTITLE14=Don Williams - Back in my younger days
TTITLE15=Emmylou Harris and Earl Thomas Conley - We believe in happy end
TTITLE15=ings
TTITLE16=Smokie - Living next door to Alice
EXTD=YEAR: 2010
EXTT0=
EXTT1=
EXTT2=
EXTT3=
EXTT4=
EXTT5=
EXTT6=
EXTT7=
EXTT8=
EXTT9=
EXTT10=
EXTT11=
EXTT12=
EXTT13=
EXTT14=
EXTT15=
EXTT16=
PLAYORDER=
